<svg xmlns="http://www.w3.org/2000/svg" xmlns:xlink="http://www.w3.org/1999/xlink" width="50" zoomAndPan="magnify" viewBox="0 0 37.5 37.499999" height="50" preserveAspectRatio="xMidYMid meet" version="1.0"><defs><clipPath id="f99f95417d"><path d="M 12.003906 9.535156 L 25 9.535156 L 25 27.300781 L 12.003906 27.300781 Z M 12.003906 9.535156 " clip-rule="nonzero"/></clipPath></defs><g clip-path="url(#f99f95417d)"><path fill="currentColor" d="M 12.003906 26.269531 L 12.003906 26.265625 C 12.003906 25.960938 12.152344 25.671875 12.40625 25.5 L 22.546875 18.5625 C 22.589844 18.53125 22.589844 18.464844 22.546875 18.433594 L 12.40625 11.496094 C 12.152344 11.320312 12.003906 11.035156 12.003906 10.730469 C 12.003906 9.976562 12.851562 9.535156 13.464844 9.96875 L 24.476562 17.742188 C 25 18.109375 25 18.886719 24.476562 19.257812 L 13.464844 27.027344 C 12.851562 27.460938 12.003906 27.019531 12.003906 26.269531 Z M 12.003906 26.269531 " fill-opacity="1" fill-rule="nonzero"/><path fill="currentColor" d="M 12.003906 26.269531 L 12.003906 26.265625 C 12.003906 25.960938 12.152344 25.671875 12.40625 25.5 L 22.546875 18.5625 C 22.589844 18.53125 22.589844 18.464844 22.546875 18.433594 L 12.40625 11.496094 C 12.152344 11.320312 12.003906 11.035156 12.003906 10.730469 C 12.003906 9.976562 12.851562 9.535156 13.464844 9.96875 L 24.476562 17.742188 C 25 18.109375 25 18.886719 24.476562 19.257812 L 13.464844 27.027344 C 12.851562 27.460938 12.003906 27.019531 12.003906 26.269531 Z M 12.003906 26.269531 " fill-opacity="1" fill-rule="nonzero"/></g></svg>