<svg xmlns="http://www.w3.org/2000/svg" width="477" height="166" viewBox="0 0 477 166">
  <rect width="477" height="166" fill="none"/>
  <g font-family="'Cascadia Mono', 'Cascadia Code', 'SF Mono', 'Menlo', 'Consolas', 'DejaVu Sans Mono', 'Lucida Console', 'Courier New', monospace" font-size="14" fill="currentColor">
<text x="24.0" y="40.8">█</text>
<text x="32.4" y="40.8">█</text>
<text x="40.8" y="40.8">╗</text>
<text x="66.0" y="40.8">█</text>
<text x="74.4" y="40.8">█</text>
<text x="82.8" y="40.8">╗</text>
<text x="99.6" y="40.8">█</text>
<text x="108.0" y="40.8">█</text>
<text x="116.4" y="40.8">█</text>
<text x="124.8" y="40.8">█</text>
<text x="133.2" y="40.8">█</text>
<text x="141.6" y="40.8">╗</text>
<text x="158.4" y="40.8">█</text>
<text x="166.8" y="40.8">█</text>
<text x="175.2" y="40.8">█</text>
<text x="183.6" y="40.8">╗</text>
<text x="217.2" y="40.8">█</text>
<text x="225.6" y="40.8">█</text>
<text x="234.0" y="40.8">╗</text>
<text x="250.8" y="40.8">█</text>
<text x="259.2" y="40.8">█</text>
<text x="267.6" y="40.8">█</text>
<text x="276.0" y="40.8">█</text>
<text x="284.4" y="40.8">█</text>
<text x="292.8" y="40.8">█</text>
<text x="301.2" y="40.8">╗</text>
<text x="326.4" y="40.8">█</text>
<text x="334.8" y="40.8">█</text>
<text x="343.2" y="40.8">█</text>
<text x="351.6" y="40.8">█</text>
<text x="360.0" y="40.8">█</text>
<text x="368.4" y="40.8">╗</text>
<text x="385.2" y="40.8">█</text>
<text x="393.6" y="40.8">█</text>
<text x="402.0" y="40.8">█</text>
<text x="410.4" y="40.8">█</text>
<text x="418.8" y="40.8">█</text>
<text x="427.2" y="40.8">█</text>
<text x="435.6" y="40.8">█</text>
<text x="444.0" y="40.8">╗</text>
<text x="24.0" y="57.6">█</text>
<text x="32.4" y="57.6">█</text>
<text x="40.8" y="57.6">║</text>
<text x="57.6" y="57.6">█</text>
<text x="66.0" y="57.6">█</text>
<text x="74.4" y="57.6">╔</text>
<text x="82.8" y="57.6">╝</text>
<text x="91.2" y="57.6">█</text>
<text x="99.6" y="57.6">█</text>
<text x="108.0" y="57.6">╔</text>
<text x="116.4" y="57.6">═</text>
<text x="124.8" y="57.6">═</text>
<text x="133.2" y="57.6">█</text>
<text x="141.6" y="57.6">█</text>
<text x="150.0" y="57.6">╗</text>
<text x="158.4" y="57.6">█</text>
<text x="166.8" y="57.6">█</text>
<text x="175.2" y="57.6">█</text>
<text x="183.6" y="57.6">█</text>
<text x="192.0" y="57.6">╗</text>
<text x="217.2" y="57.6">█</text>
<text x="225.6" y="57.6">█</text>
<text x="234.0" y="57.6">║</text>
<text x="242.4" y="57.6">█</text>
<text x="250.8" y="57.6">█</text>
<text x="259.2" y="57.6">╔</text>
<text x="267.6" y="57.6">═</text>
<text x="276.0" y="57.6">═</text>
<text x="284.4" y="57.6">═</text>
<text x="292.8" y="57.6">═</text>
<text x="301.2" y="57.6">╝</text>
<text x="318.0" y="57.6">█</text>
<text x="326.4" y="57.6">█</text>
<text x="334.8" y="57.6">╔</text>
<text x="343.2" y="57.6">═</text>
<text x="351.6" y="57.6">═</text>
<text x="360.0" y="57.6">█</text>
<text x="368.4" y="57.6">█</text>
<text x="376.8" y="57.6">╗</text>
<text x="385.2" y="57.6">█</text>
<text x="393.6" y="57.6">█</text>
<text x="402.0" y="57.6">╔</text>
<text x="410.4" y="57.6">═</text>
<text x="418.8" y="57.6">═</text>
<text x="427.2" y="57.6">═</text>
<text x="435.6" y="57.6">═</text>
<text x="444.0" y="57.6">╝</text>
<text x="24.0" y="74.4">█</text>
<text x="32.4" y="74.4">█</text>
<text x="40.8" y="74.4">█</text>
<text x="49.2" y="74.4">█</text>
<text x="57.6" y="74.4">█</text>
<text x="66.0" y="74.4">╔</text>
<text x="74.4" y="74.4">╝</text>
<text x="91.2" y="74.4">█</text>
<text x="99.6" y="74.4">█</text>
<text x="108.0" y="74.4">█</text>
<text x="116.4" y="74.4">█</text>
<text x="124.8" y="74.4">█</text>
<text x="133.2" y="74.4">█</text>
<text x="141.6" y="74.4">█</text>
<text x="150.0" y="74.4">║</text>
<text x="158.4" y="74.4">█</text>
<text x="166.8" y="74.4">█</text>
<text x="175.2" y="74.4">╔</text>
<text x="183.6" y="74.4">█</text>
<text x="192.0" y="74.4">█</text>
<text x="200.4" y="74.4">╗</text>
<text x="217.2" y="74.4">█</text>
<text x="225.6" y="74.4">█</text>
<text x="234.0" y="74.4">║</text>
<text x="242.4" y="74.4">█</text>
<text x="250.8" y="74.4">█</text>
<text x="259.2" y="74.4">║</text>
<text x="284.4" y="74.4">█</text>
<text x="292.8" y="74.4">█</text>
<text x="301.2" y="74.4">█</text>
<text x="309.6" y="74.4">╗</text>
<text x="318.0" y="74.4">█</text>
<text x="326.4" y="74.4">█</text>
<text x="334.8" y="74.4">█</text>
<text x="343.2" y="74.4">█</text>
<text x="351.6" y="74.4">█</text>
<text x="360.0" y="74.4">█</text>
<text x="368.4" y="74.4">█</text>
<text x="376.8" y="74.4">║</text>
<text x="385.2" y="74.4">█</text>
<text x="393.6" y="74.4">█</text>
<text x="402.0" y="74.4">█</text>
<text x="410.4" y="74.4">█</text>
<text x="418.8" y="74.4">█</text>
<text x="427.2" y="74.4">╗</text>
<text x="24.0" y="91.2">█</text>
<text x="32.4" y="91.2">█</text>
<text x="40.8" y="91.2">╔</text>
<text x="49.2" y="91.2">═</text>
<text x="57.6" y="91.2">█</text>
<text x="66.0" y="91.2">█</text>
<text x="74.4" y="91.2">╗</text>
<text x="91.2" y="91.2">█</text>
<text x="99.6" y="91.2">█</text>
<text x="108.0" y="91.2">╔</text>
<text x="116.4" y="91.2">═</text>
<text x="124.8" y="91.2">═</text>
<text x="133.2" y="91.2">█</text>
<text x="141.6" y="91.2">█</text>
<text x="150.0" y="91.2">║</text>
<text x="158.4" y="91.2">█</text>
<text x="166.8" y="91.2">█</text>
<text x="175.2" y="91.2">║</text>
<text x="183.6" y="91.2">╚</text>
<text x="192.0" y="91.2">█</text>
<text x="200.4" y="91.2">█</text>
<text x="208.8" y="91.2">╗</text>
<text x="217.2" y="91.2">█</text>
<text x="225.6" y="91.2">█</text>
<text x="234.0" y="91.2">║</text>
<text x="242.4" y="91.2">█</text>
<text x="250.8" y="91.2">█</text>
<text x="259.2" y="91.2">║</text>
<text x="292.8" y="91.2">█</text>
<text x="301.2" y="91.2">█</text>
<text x="309.6" y="91.2">║</text>
<text x="318.0" y="91.2">█</text>
<text x="326.4" y="91.2">█</text>
<text x="334.8" y="91.2">╔</text>
<text x="343.2" y="91.2">═</text>
<text x="351.6" y="91.2">═</text>
<text x="360.0" y="91.2">█</text>
<text x="368.4" y="91.2">█</text>
<text x="376.8" y="91.2">║</text>
<text x="385.2" y="91.2">█</text>
<text x="393.6" y="91.2">█</text>
<text x="402.0" y="91.2">╔</text>
<text x="410.4" y="91.2">═</text>
<text x="418.8" y="91.2">═</text>
<text x="427.2" y="91.2">╝</text>
<text x="24.0" y="108.0">█</text>
<text x="32.4" y="108.0">█</text>
<text x="40.8" y="108.0">║</text>
<text x="66.0" y="108.0">█</text>
<text x="74.4" y="108.0">█</text>
<text x="82.8" y="108.0">╗</text>
<text x="91.2" y="108.0">█</text>
<text x="99.6" y="108.0">█</text>
<text x="108.0" y="108.0">║</text>
<text x="133.2" y="108.0">█</text>
<text x="141.6" y="108.0">█</text>
<text x="150.0" y="108.0">║</text>
<text x="158.4" y="108.0">█</text>
<text x="166.8" y="108.0">█</text>
<text x="175.2" y="108.0">║</text>
<text x="192.0" y="108.0">╚</text>
<text x="200.4" y="108.0">█</text>
<text x="208.8" y="108.0">█</text>
<text x="217.2" y="108.0">█</text>
<text x="225.6" y="108.0">█</text>
<text x="234.0" y="108.0">║</text>
<text x="242.4" y="108.0">╚</text>
<text x="250.8" y="108.0">█</text>
<text x="259.2" y="108.0">█</text>
<text x="267.6" y="108.0">█</text>
<text x="276.0" y="108.0">█</text>
<text x="284.4" y="108.0">█</text>
<text x="292.8" y="108.0">█</text>
<text x="301.2" y="108.0">╔</text>
<text x="309.6" y="108.0">╝</text>
<text x="318.0" y="108.0">█</text>
<text x="326.4" y="108.0">█</text>
<text x="334.8" y="108.0">║</text>
<text x="360.0" y="108.0">█</text>
<text x="368.4" y="108.0">█</text>
<text x="376.8" y="108.0">║</text>
<text x="385.2" y="108.0">█</text>
<text x="393.6" y="108.0">█</text>
<text x="402.0" y="108.0">█</text>
<text x="410.4" y="108.0">█</text>
<text x="418.8" y="108.0">█</text>
<text x="427.2" y="108.0">█</text>
<text x="435.6" y="108.0">█</text>
<text x="444.0" y="108.0">╗</text>
<text x="24.0" y="124.8">╚</text>
<text x="32.4" y="124.8">═</text>
<text x="40.8" y="124.8">╝</text>
<text x="66.0" y="124.8">╚</text>
<text x="74.4" y="124.8">═</text>
<text x="82.8" y="124.8">╝</text>
<text x="91.2" y="124.8">╚</text>
<text x="99.6" y="124.8">═</text>
<text x="108.0" y="124.8">╝</text>
<text x="133.2" y="124.8">╚</text>
<text x="141.6" y="124.8">═</text>
<text x="150.0" y="124.8">╝</text>
<text x="158.4" y="124.8">╚</text>
<text x="166.8" y="124.8">═</text>
<text x="175.2" y="124.8">╝</text>
<text x="200.4" y="124.8">╚</text>
<text x="208.8" y="124.8">═</text>
<text x="217.2" y="124.8">═</text>
<text x="225.6" y="124.8">═</text>
<text x="234.0" y="124.8">╝</text>
<text x="250.8" y="124.8">╚</text>
<text x="259.2" y="124.8">═</text>
<text x="267.6" y="124.8">═</text>
<text x="276.0" y="124.8">═</text>
<text x="284.4" y="124.8">═</text>
<text x="292.8" y="124.8">═</text>
<text x="301.2" y="124.8">╝</text>
<text x="318.0" y="124.8">╚</text>
<text x="326.4" y="124.8">═</text>
<text x="334.8" y="124.8">╝</text>
<text x="360.0" y="124.8">╚</text>
<text x="368.4" y="124.8">═</text>
<text x="376.8" y="124.8">╝</text>
<text x="385.2" y="124.8">╚</text>
<text x="393.6" y="124.8">═</text>
<text x="402.0" y="124.8">═</text>
<text x="410.4" y="124.8">═</text>
<text x="418.8" y="124.8">═</text>
<text x="427.2" y="124.8">═</text>
<text x="435.6" y="124.8">═</text>
<text x="444.0" y="124.8">╝</text>
  </g>
</svg>
